<svg width="18" height="12" viewBox="0 0 18 12" fill="none" xmlns="http://www.w3.org/2000/svg">
<path fill-rule="evenodd" clip-rule="evenodd" d="M1.29585 8.63903C1.63954 8.63903 1.96914 8.77556 2.21216 9.01858C2.45518 9.2616 2.59171 9.5912 2.59171 9.93488C2.59171 10.2786 2.45518 10.6082 2.21216 10.8512C1.96914 11.0942 1.63954 11.2307 1.29585 11.2307C0.952172 11.2307 0.622566 11.0942 0.379547 10.8512C0.136527 10.6082 0 10.2786 0 9.93488C0 9.5912 0.136527 9.2616 0.379547 9.01858C0.622566 8.77556 0.952172 8.63903 1.29585 8.63903ZM16.8452 9.07098C17.323 9.07098 17.71 9.45455 17.71 9.93488C17.71 10.4122 17.3256 10.7988 16.8452 10.7988H4.75233C4.63874 10.7991 4.52621 10.777 4.42119 10.7337C4.31617 10.6905 4.22075 10.6268 4.14039 10.5466C4.06003 10.4663 3.99633 10.3709 3.95294 10.266C3.90955 10.161 3.88733 10.0485 3.88756 9.93488C3.88756 9.45758 4.272 9.07098 4.75233 9.07098H16.8452ZM1.29585 4.31951C1.63954 4.31951 1.96914 4.45604 2.21216 4.69906C2.45518 4.94208 2.59171 5.27169 2.59171 5.61537C2.59171 5.95905 2.45518 6.28866 2.21216 6.53168C1.96914 6.7747 1.63954 6.91122 1.29585 6.91122C0.952172 6.91122 0.622566 6.7747 0.379547 6.53168C0.136527 6.28866 0 5.95905 0 5.61537C0 5.27169 0.136527 4.94208 0.379547 4.69906C0.622566 4.45604 0.952172 4.31951 1.29585 4.31951ZM16.8452 4.75147C17.323 4.75147 17.71 5.13504 17.71 5.61537C17.71 6.09268 17.3256 6.47927 16.8452 6.47927H4.75233C4.63874 6.47961 4.52621 6.45751 4.42119 6.41422C4.31617 6.37094 4.22075 6.30733 4.14039 6.22706C4.06003 6.14678 3.99633 6.05141 3.95294 5.94644C3.90955 5.84147 3.88733 5.72896 3.88756 5.61537C3.88756 5.13806 4.272 4.75147 4.75233 4.75147H16.8452ZM1.29585 0C1.63954 0 1.96914 0.136527 2.21216 0.379547C2.45518 0.622567 2.59171 0.952173 2.59171 1.29585C2.59171 1.63954 2.45518 1.96914 2.21216 2.21216C1.96914 2.45518 1.63954 2.59171 1.29585 2.59171C0.952172 2.59171 0.622566 2.45518 0.379547 2.21216C0.136527 1.96914 0 1.63954 0 1.29585C0 0.952173 0.136527 0.622567 0.379547 0.379547C0.622566 0.136527 0.952172 0 1.29585 0ZM16.8452 0.431951C17.323 0.431951 17.71 0.815524 17.71 1.29585C17.71 1.77316 17.3256 2.15976 16.8452 2.15976H4.75233C4.63874 2.1601 4.52621 2.13799 4.42119 2.09471C4.31617 2.05143 4.22075 1.98782 4.14039 1.90754C4.06003 1.82726 3.99633 1.7319 3.95294 1.62693C3.90955 1.52195 3.88733 1.40944 3.88756 1.29585C3.88756 0.818548 4.272 0.431951 4.75233 0.431951H16.8452Z" fill="white"/>
</svg>
