<svg width="16" height="16" viewBox="0 0 16 16" fill="none" xmlns="http://www.w3.org/2000/svg">
<path d="M13.92 4.2444L8.42 1.23315C8.29141 1.16213 8.1469 1.12488 8 1.12488C7.8531 1.12488 7.70859 1.16213 7.58 1.23315L2.08 4.2444C1.94238 4.3197 1.82753 4.43061 1.74748 4.56553C1.66744 4.70045 1.62513 4.8544 1.625 5.01128V10.9888C1.62513 11.1457 1.66744 11.2996 1.74748 11.4345C1.82753 11.5694 1.94238 11.6803 2.08 11.7556L7.58 14.7669C7.70863 14.8378 7.85312 14.875 8 14.875C8.14688 14.875 8.29137 14.8378 8.42 14.7669L13.92 11.7556C14.0576 11.6803 14.1725 11.5694 14.2525 11.4345C14.3326 11.2996 14.3749 11.1457 14.375 10.9888V5.01128C14.3749 4.8544 14.3326 4.70045 14.2525 4.56553C14.1725 4.43061 14.0576 4.3197 13.92 4.2444ZM7.9375 1.89065C7.9559 1.88058 7.97653 1.87531 7.9975 1.87531C8.01847 1.87531 8.0391 1.88058 8.0575 1.89065L13.2819 4.75003L11.1606 5.91065L5.87813 3.0194L7.9375 1.89065ZM7.625 13.9375L2.4375 11.0982C2.41833 11.0871 2.40245 11.0711 2.39146 11.0519C2.38048 11.0327 2.3748 11.0109 2.375 10.9888V5.41628L7.625 8.29128V13.9375ZM2.71813 4.75003L5.0975 3.4469L10.3794 6.33815L8 7.64003L2.71813 4.75003ZM13.625 10.9888C13.6252 11.0109 13.6195 11.0327 13.6085 11.0519C13.5976 11.0711 13.5817 11.0871 13.5625 11.0982L8.375 13.9375V8.29002L10.625 7.05815V9.50002C10.625 9.59948 10.6645 9.69486 10.7348 9.76519C10.8052 9.83552 10.9005 9.87502 11 9.87502C11.0995 9.87502 11.1948 9.83552 11.2652 9.76519C11.3355 9.69486 11.375 9.59948 11.375 9.50002V6.64815L13.625 5.41628V10.9888Z" fill="#60626E"/>
</svg>
