<svg width="16" height="16" viewBox="0 0 16 16" fill="none" xmlns="http://www.w3.org/2000/svg">
<path d="M13.427 8.90156L13.4301 8.90312C13.4785 8.60781 13.502 8.30625 13.502 8.00781C13.502 7.74062 13.4816 7.47187 13.4441 7.20937C13.4816 7.47031 13.5004 7.73438 13.5004 7.99844C13.5004 8.30156 13.4754 8.60469 13.427 8.90156ZM1.54727 6.22031C1.53945 6.21406 1.5332 6.20781 1.52539 6.2C1.53633 6.21094 1.54727 6.22187 1.55977 6.23281L2.5832 7.10625V7.10469L1.54727 6.22031ZM9.93164 2.84531H9.9332L9.69102 1.53594C9.68789 1.52031 9.68477 1.50625 9.68008 1.49219C9.68164 1.5 9.68477 1.50937 9.68633 1.51719L9.93164 2.84531ZM10.7754 11.3844L11.266 10.9812L12.716 11.4953C12.9816 11.1375 13.2051 10.7531 13.3816 10.3453L12.2145 9.34688L12.3176 8.72031C12.3566 8.48437 12.377 8.24219 12.377 8C12.377 7.75781 12.3566 7.51562 12.3176 7.27969L12.216 6.65625L13.3832 5.65781C13.2051 5.25156 12.9832 4.86562 12.7176 4.50781L11.2676 5.02187L10.777 4.61875C10.4035 4.3125 9.98633 4.07188 9.53789 3.90313L8.94258 3.67969L8.66289 2.16406C8.22159 2.11406 7.77606 2.11406 7.33477 2.16406L7.05508 3.68281L6.46289 3.90625C6.01758 4.075 5.60352 4.31563 5.2332 4.62031L4.74258 5.025L3.2832 4.50625C3.01758 4.86406 2.79414 5.24844 2.61758 5.65625L3.79727 6.66406L3.6957 7.28906C3.65664 7.52187 3.63789 7.76094 3.63789 8C3.63789 8.2375 3.6582 8.47813 3.6957 8.71094L3.79727 9.33594L2.61758 10.3438C2.7957 10.75 3.01758 11.1359 3.2832 11.4937L4.74258 10.975L5.2332 11.3797C5.60352 11.6844 6.01758 11.925 6.46289 12.0938L7.05352 12.3203L7.3332 13.8391C7.77383 13.8891 8.22227 13.8891 8.66133 13.8391L8.94102 12.3234L9.53633 12.1C9.98633 11.9313 10.402 11.6906 10.7754 11.3844ZM8.0082 10.5984C7.53164 10.5984 7.0832 10.4766 6.69102 10.2625C5.8332 9.79688 5.25039 8.88906 5.25039 7.84375C5.25039 6.325 6.48164 5.09375 8.00039 5.09375C9.0457 5.09375 9.95352 5.67656 10.4191 6.53438C10.6332 6.925 10.7551 7.37344 10.7551 7.85156C10.7551 9.36875 9.52539 10.5984 8.0082 10.5984ZM3.23789 12.7C3.15195 12.7297 3.06289 12.7359 2.97852 12.7188C3.06758 12.7375 3.16133 12.7344 3.25195 12.7031L4.52383 12.25C4.52227 12.2484 4.51914 12.2469 4.51758 12.2453L3.23789 12.7ZM14.4504 6.22031L13.427 7.09531C13.427 7.09844 13.4285 7.10312 13.4285 7.10625L14.4504 6.23281C14.5613 6.1375 14.6238 6 14.6254 5.85781C14.6207 5.99531 14.5582 6.12813 14.4504 6.22031Z" fill="#60626E" fill-opacity="0.15"/>
<path d="M14.6217 10.1031C14.6295 10.1766 14.6217 10.2516 14.5951 10.3235L14.5811 10.3641C14.2986 11.1512 13.8768 11.8811 13.3357 12.5188L13.3076 12.5516C13.2421 12.6291 13.1545 12.6848 13.0565 12.7113C12.9586 12.7378 12.8549 12.7339 12.7592 12.7L11.4889 12.2485C11.0228 12.6324 10.4964 12.9365 9.93105 13.1485L9.68574 14.4766C9.66723 14.5765 9.61876 14.6685 9.54675 14.7402C9.47475 14.8119 9.38262 14.86 9.28262 14.8781L9.24043 14.886C8.83207 14.9598 8.41791 14.9969 8.00293 14.9969H8.00762C8.4248 14.9969 8.84199 14.9594 9.24824 14.886L9.29043 14.8781C9.39043 14.86 9.48256 14.8119 9.55456 14.7402C9.62657 14.6685 9.67505 14.5765 9.69355 14.4766L9.93887 13.15C10.5045 12.9375 11.0264 12.636 11.4951 12.2516L12.7639 12.7031C12.8595 12.737 12.9633 12.7409 13.0612 12.7144C13.1592 12.6879 13.2468 12.6322 13.3123 12.5547L13.3404 12.5219C13.8842 11.8797 14.3014 11.1563 14.5842 10.3703L14.5982 10.3297C14.6232 10.2563 14.6311 10.1781 14.6217 10.1031Z" fill="#60626E" fill-opacity="0.15"/>
<path d="M10.75 7.84375C10.75 7.37031 10.6297 6.92344 10.4187 6.53438C9.95312 5.67656 9.04531 5.09375 8 5.09375C6.48125 5.09375 5.25 6.325 5.25 7.84375C5.25 8.88906 5.83281 9.79688 6.69063 10.2625C7.07969 10.4734 7.525 10.5938 8 10.5938C9.51875 10.5938 10.75 9.3625 10.75 7.84375ZM6.25 7.84375C6.25 7.37656 6.43281 6.9375 6.7625 6.60625C7.09375 6.275 7.53281 6.09375 8 6.09375C8.46719 6.09375 8.90625 6.275 9.2375 6.60625C9.40028 6.76856 9.52935 6.96145 9.61731 7.17383C9.70526 7.38621 9.75036 7.61388 9.75 7.84375C9.75 8.31094 9.56719 8.75 9.2375 9.08125C9.07519 9.24403 8.8823 9.3731 8.66992 9.46106C8.45754 9.54901 8.22987 9.59411 8 9.59375C7.53281 9.59375 7.09375 9.41094 6.7625 9.08125C6.59972 8.91894 6.47065 8.72605 6.38269 8.51367C6.29474 8.30129 6.24964 8.07362 6.25 7.84375Z" fill="#60626E"/>
<path d="M9.28301 14.8781C9.38302 14.86 9.47514 14.8119 9.54715 14.7402C9.61915 14.6685 9.66763 14.5765 9.68614 14.4766L9.93145 13.1485C10.4968 12.9365 11.0232 12.6324 11.4893 12.2485L12.7596 12.7C12.8553 12.7339 12.959 12.7378 13.0569 12.7113C13.1549 12.6848 13.2425 12.6291 13.308 12.5516L13.3361 12.5188C13.8799 11.8766 14.2986 11.1516 14.5814 10.3641L14.5955 10.3235C14.6221 10.2516 14.6299 10.1766 14.6221 10.1031C14.608 9.97971 14.5486 9.86252 14.4502 9.77659L13.4299 8.90315L13.4268 8.90159C13.4752 8.60471 13.5002 8.30159 13.5002 7.99846C13.5002 7.7344 13.4814 7.46877 13.4439 7.2094C13.4393 7.17502 13.433 7.14065 13.4283 7.10627C13.4283 7.10315 13.4268 7.09846 13.4268 7.09534L14.4502 6.22034C14.558 6.12815 14.6205 5.99534 14.6252 5.85784C14.6268 5.79534 14.6174 5.73127 14.5955 5.67034L14.5814 5.62971C14.2997 4.84225 13.8778 4.11226 13.3361 3.47502L13.308 3.44221C13.2423 3.36495 13.1547 3.30941 13.0568 3.28291C12.9589 3.25641 12.8553 3.2602 12.7596 3.29377L11.4893 3.74534C11.0205 3.36096 10.4986 3.05784 9.93301 2.84534H9.93145L9.68614 1.51721C9.68457 1.5094 9.68301 1.50002 9.67989 1.49221C9.65733 1.39774 9.60781 1.31186 9.53735 1.24501C9.4669 1.17816 9.37853 1.13322 9.28301 1.11565L9.24082 1.10784C8.42676 0.960962 7.57051 0.960962 6.75645 1.10784L6.71426 1.11565C6.61426 1.13377 6.52213 1.18189 6.45013 1.25361C6.37812 1.32534 6.32964 1.41728 6.31114 1.51721L6.06426 2.85159C5.50315 3.06414 4.98062 3.3671 4.51739 3.74846L3.2377 3.29377C3.14202 3.25993 3.03831 3.25601 2.94035 3.28252C2.84239 3.30904 2.75481 3.36473 2.68926 3.44221L2.66114 3.47502C2.12011 4.11271 1.69828 4.84258 1.41582 5.62971L1.40176 5.67034C1.3692 5.76115 1.36353 5.85942 1.38542 5.95337C1.40732 6.04732 1.45585 6.13296 1.5252 6.20002C1.53301 6.20627 1.53926 6.21409 1.54707 6.22034L2.58301 7.10471V7.10627C2.53457 7.40002 2.51114 7.69846 2.51114 7.9969C2.51114 8.2969 2.53457 8.5969 2.58301 8.88909L1.54707 9.77346C1.46988 9.83955 1.41463 9.92756 1.38867 10.0258C1.36272 10.1241 1.36728 10.2279 1.40176 10.3235L1.41582 10.3641C1.69864 11.1516 2.11739 11.8781 2.66114 12.5188L2.68926 12.5516C2.76582 12.6406 2.86739 12.6985 2.97832 12.7188C3.0627 12.7344 3.15176 12.7297 3.2377 12.7L4.51739 12.2453C4.51895 12.2469 4.52207 12.2485 4.52364 12.25C4.9877 12.6297 5.50489 12.9313 6.06426 13.1422L6.31114 14.4766C6.32964 14.5765 6.37812 14.6685 6.45013 14.7402C6.52213 14.8119 6.61426 14.86 6.71426 14.8781L6.75645 14.886C7.16426 14.9594 7.58145 14.9969 7.99864 14.9969H8.00332C8.41895 14.9969 8.83614 14.9594 9.24082 14.886L9.28301 14.8781ZM8.66114 13.8391C8.21984 13.8891 7.77431 13.8891 7.33301 13.8391L7.05332 12.3203L6.4627 12.0938C6.01739 11.925 5.60332 11.6844 5.23301 11.3797L4.74239 10.975L3.28301 11.4938C3.01739 11.136 2.79551 10.75 2.61739 10.3438L3.79707 9.33596L3.69551 8.71096C3.65801 8.47815 3.6377 8.23752 3.6377 8.00002C3.6377 7.76096 3.65645 7.5219 3.69551 7.28909L3.79707 6.66409L2.61739 5.65627C2.79395 5.24846 3.01739 4.86409 3.28301 4.50627L4.74239 5.02502L5.23301 4.62034C5.60332 4.31565 6.01739 4.07502 6.4627 3.90627L7.05489 3.68284L7.33457 2.16409C7.77364 2.11409 8.22207 2.11409 8.6627 2.16409L8.94239 3.67971L9.5377 3.90315C9.98614 4.0719 10.4033 4.31252 10.7768 4.61877L11.2674 5.0219L12.7174 4.50784C12.983 4.86565 13.2049 5.25159 13.383 5.65784L12.2158 6.65627L12.3174 7.27971C12.3564 7.51565 12.3768 7.75784 12.3768 8.00002C12.3768 8.24221 12.3564 8.4844 12.3174 8.72034L12.2143 9.3469L13.3814 10.3453C13.2045 10.753 12.9812 11.1389 12.7158 11.4953L11.2658 10.9813L10.7752 11.3844C10.4018 11.6906 9.98614 11.9313 9.53614 12.1L8.94082 12.3235L8.66114 13.8391Z" fill="#60626E"/>
</svg>
